# xmcd
#
# Track frame offsets: 
#        150
#        24288
#        35113
#        46925
#        75950
#        95688
#        107113
#        183575
#        195563
#        200428
#        213338
#
# Disc length: 3035 seconds
#
# Revision: 0
# Processed by: cddbd v1.5.2PL0 Copyright (c) Steve Scherf et al.
# Submitted via: ExactAudioCopy v0.95b3
#
DISCID=8e0bd90b
DTITLE=Brainbox  - Brainbox (1969)
DYEAR=1900
DGENRE=
TTITLE0=Dark Rose
TTITLE1=Reason To Believe
TTITLE2=Baby, What You Want Me To Do
TTITLE3=Scarborough Fair
TTITLE4=Summertime  (from Porgy and Bess)
TTITLE5=Sinner's Prayer
TTITLE6=Sea Of Delight
TTITLE7=Down Man
TTITLE8=Sea Of Delight  (Try Out)
TTITLE9=Sea Of Delight  (Take 1)
TTITLE10=Amsterdam, The First Days
EXTD=
EXTT0=
EXTT1=
EXTT2=
EXTT3=
EXTT4=
EXTT5=
EXTT6=
EXTT7=
EXTT8=
EXTT9=
EXTT10=
PLAYORDER=
